<svg width="23" height="23" viewBox="0 0 23 23" fill="none" xmlns="http://www.w3.org/2000/svg">
<g clip-path="url(#clip0)">
<path d="M13.0529 22.9551H9.36244C8.74602 22.9551 8.24458 22.4546 8.24458 21.8394V13.5317H6.09149C5.47507 13.5317 4.97363 13.031 4.97363 12.416V8.8561C4.97363 8.24088 5.47507 7.74043 6.09149 7.74043H8.24458V5.95776C8.24458 4.19019 8.8007 2.68636 9.85262 1.60912C10.9093 0.526955 12.386 -0.0449219 14.1231 -0.0449219L16.9376 -0.0403595C17.553 -0.0393066 18.0535 0.461151 18.0535 1.07532V4.38059C18.0535 4.9958 17.5523 5.49626 16.936 5.49626L15.0411 5.49696C14.4631 5.49696 14.316 5.6126 14.2845 5.64805C14.2326 5.70683 14.1709 5.87301 14.1709 6.33188V7.74025H16.7936C16.9911 7.74025 17.1824 7.78886 17.3468 7.88046C17.7014 8.07822 17.9219 8.45216 17.9219 8.85628L17.9205 12.4162C17.9205 13.031 17.419 13.5315 16.8026 13.5315H14.1709V21.8394C14.1709 22.4546 13.6693 22.9551 13.0529 22.9551ZM9.59557 21.6067H12.8198V12.928C12.8198 12.5172 13.1547 12.1831 13.5661 12.1831H16.5695L16.5707 9.08878H13.5659C13.1545 9.08878 12.8198 8.75468 12.8198 8.34389V6.33188C12.8198 5.8051 12.8734 5.20602 13.2718 4.75575C13.7532 4.21143 14.5118 4.14861 15.0407 4.14861L16.7025 4.1479V1.30765L14.122 1.30344C11.3304 1.30344 9.59557 3.08698 9.59557 5.95776V8.34389C9.59557 8.7545 9.26081 9.08878 8.8494 9.08878H6.32463V12.1831H8.8494C9.26081 12.1831 9.59557 12.5172 9.59557 12.928V21.6067ZM16.935 1.308H16.9352H16.935Z" fill="#202B52"/>
</g>
<defs>
<clipPath id="clip0">
<rect width="23" height="23" fill="white"/>
</clipPath>
</defs>
</svg>
