<svg width="23" height="23" viewBox="0 0 23 23" fill="none" xmlns="http://www.w3.org/2000/svg">
<g clip-path="url(#clip0)">
<path d="M7.18785 19.002H4.04332V8.84961H7.18785V19.002ZM7.5016 5.61506C7.5016 4.59853 6.67686 3.77344 5.66086 3.77344C4.64099 3.77344 3.81836 4.59853 3.81836 5.61506C3.81836 6.63194 4.64099 7.45703 5.66086 7.45703C6.67686 7.45703 7.5016 6.63194 7.5016 5.61506ZM18.957 13.4165C18.957 10.6912 18.3813 8.66992 15.1976 8.66992C13.6678 8.66992 12.6409 9.435 12.2217 10.2306H12.2188V8.84961H9.16406V19.002H12.2188V13.9612C12.2188 12.6411 12.5548 11.3623 14.1911 11.3623C15.8051 11.3623 15.8574 12.8719 15.8574 14.0451V19.002H18.957V13.4165ZM23 20.3047V2.69531C23 1.20903 21.791 0 20.3047 0H2.69531C1.20903 0 0 1.20903 0 2.69531V20.3047C0 21.791 1.20903 23 2.69531 23H20.3047C21.791 23 23 21.791 23 20.3047ZM20.3047 1.79688C20.8001 1.79688 21.2031 2.19994 21.2031 2.69531V20.3047C21.2031 20.8001 20.8001 21.2031 20.3047 21.2031H2.69531C2.19994 21.2031 1.79688 20.8001 1.79688 20.3047V2.69531C1.79688 2.19994 2.19994 1.79688 2.69531 1.79688H20.3047Z" fill="#202B52"/>
</g>
<defs>
<clipPath id="clip0">
<rect width="23" height="23" fill="white"/>
</clipPath>
</defs>
</svg>
